<svg width="140" height="112" viewBox="0 0 140 112" fill="none" xmlns="http://www.w3.org/2000/svg">
<path opacity="0.4" fill-rule="evenodd" clip-rule="evenodd" d="M119.527 -30.499L39.3246 -29.5882L0.987636 36.8134L37.7235 111.11L120.158 111.477L161.039 40.6686L119.527 -30.499ZM137.529 76.3704L157.421 41.917L125.627 41.7755L105.488 76.6557L137.529 76.3704ZM136.073 78.893L118.713 108.961L86.9185 108.82L104.032 79.1784L136.073 78.893ZM101.119 79.2043L84.0281 108.807L40.6724 108.614L57.4274 79.5934L101.119 79.2043ZM55.2606 78.3271L38.5902 107.201L19.2061 67.9976L34.8658 40.8743L55.2606 78.3271ZM36.3363 38.3272L56.7312 75.7801L77.2137 40.3033L56.5907 3.62764L56.368 3.63138L36.3363 38.3272ZM33.4592 38.2913L17.8693 65.2939L3.83253 36.9051L18.6905 11.1703L33.4592 38.2913ZM20.161 8.62324L34.9298 35.7443L54.905 1.14605L55.1926 1.14121L40.0394 -25.8071L20.161 8.62324ZM58.8838 77.0708L102.576 76.6817L122.736 41.7626L79.3805 41.5695L58.8838 77.0708ZM122.352 39.2513L79.3937 39.06L59.4429 3.57965L101.136 2.87828L122.352 39.2513ZM99.6861 0.392731L58.0447 1.09323L42.1854 -27.1109L83.3704 -27.5786L99.6861 0.392731ZM86.2566 -27.6114L102.563 0.344329L134.301 -0.189578L118.095 -27.973L86.2566 -27.6114ZM135.751 2.29597L104.013 2.82988L125.265 39.2642L157.398 39.4073L135.751 2.29597Z" fill="url(#paint0_linear_3_232)"/>
<defs>
<linearGradient id="paint0_linear_3_232" x1="37.1769" y1="-29.8659" x2="118.738" y2="115.69" gradientUnits="userSpaceOnUse">
<stop stop-color="white"/>
<stop offset="1" stop-color="#3C3C3C"/>
</linearGradient>
</defs>
</svg>
