<svg width="1437" height="509" viewBox="0 0 1437 509" fill="none" xmlns="http://www.w3.org/2000/svg">
<mask id="mask0_552_2" style="mask-type:alpha" maskUnits="userSpaceOnUse" x="-41" y="45" width="738" height="859">
<path d="M437.857 103.008L-20.3464 735.412C-59.761 789.811 -38.1003 858.616 28.0157 889.034C94.1316 919.451 179.741 899.996 219.155 845.597L677.158 213.47C716.572 159.071 694.911 90.2657 628.795 59.8484C562.881 29.1535 477.272 48.6083 437.857 103.008Z" fill="url(#paint0_linear_552_2)"/>
</mask>
<g mask="url(#mask0_552_2)">
<g filter="url(#filter0_ii_552_2)">
<path d="M437.858 103.007L-21.1722 736.553C-60.5868 790.952 -38.9261 859.758 27.1897 890.175C93.3055 920.592 178.914 901.137 218.329 846.738L677.158 213.47C716.572 159.071 694.912 90.2654 628.796 59.8481C562.881 29.1533 477.272 48.6081 437.858 103.007Z" fill="url(#paint1_linear_552_2)"/>
<path d="M437.858 103.007L-21.1722 736.553C-60.5868 790.952 -38.9261 859.758 27.1897 890.175C93.3055 920.592 178.914 901.137 218.329 846.738L677.158 213.47C716.572 159.071 694.912 90.2654 628.796 59.8481C562.881 29.1533 477.272 48.6081 437.858 103.007Z" fill="#1F2E7E" fill-opacity="0.2"/>
</g>
</g>
<mask id="mask1_552_2" style="mask-type:alpha" maskUnits="userSpaceOnUse" x="579" y="330" width="737" height="859">
<path d="M1057 388.186L598.797 1020.59C559.383 1074.99 581.043 1143.79 647.159 1174.21C713.275 1204.63 798.884 1185.17 838.299 1130.77L1296.3 498.648C1335.72 444.249 1314.05 375.444 1247.94 345.026C1182.02 314.332 1096.42 333.786 1057 388.186Z" fill="url(#paint2_linear_552_2)"/>
</mask>
<g mask="url(#mask1_552_2)">
<g filter="url(#filter1_ii_552_2)">
<path d="M1057 388.185L597.972 1021.73C558.557 1076.13 580.218 1144.94 646.334 1175.35C712.449 1205.77 798.058 1186.32 837.473 1131.92L1296.3 498.648C1335.72 444.249 1314.06 375.443 1247.94 345.026C1182.03 314.331 1096.42 333.786 1057 388.185Z" fill="url(#paint3_linear_552_2)"/>
<path d="M1057 388.185L597.972 1021.73C558.557 1076.13 580.218 1144.94 646.334 1175.35C712.449 1205.77 798.058 1186.32 837.473 1131.92L1296.3 498.648C1335.72 444.249 1314.06 375.443 1247.94 345.026C1182.03 314.331 1096.42 333.786 1057 388.185Z" fill="#1F2E7E" fill-opacity="0.2"/>
</g>
</g>
<mask id="mask2_552_2" style="mask-type:alpha" maskUnits="userSpaceOnUse" x="434" y="-40" width="738" height="858">
<path d="M454.07 650.218L912.273 17.8136C951.688 -36.5857 1037.3 -56.0405 1103.41 -25.6232C1169.53 4.79409 1191.19 73.5995 1151.77 127.999L693.772 760.126C654.358 814.525 568.749 833.98 502.633 803.562C436.316 773.423 414.655 704.617 454.07 650.218Z" fill="url(#paint4_linear_552_2)"/>
</mask>
<g mask="url(#mask2_552_2)">
<g filter="url(#filter2_ii_552_2)">
<path d="M454.07 650.218L913.1 16.6727C952.515 -37.7266 1038.12 -57.1814 1104.24 -26.7641C1170.36 3.6532 1192.02 72.4585 1152.6 126.858L693.772 760.126C654.358 814.525 568.749 833.98 502.633 803.563C436.316 773.423 414.656 704.618 454.07 650.218Z" fill="url(#paint5_linear_552_2)"/>
<path d="M454.07 650.218L913.1 16.6727C952.515 -37.7266 1038.12 -57.1814 1104.24 -26.7641C1170.36 3.6532 1192.02 72.4585 1152.6 126.858L693.772 760.126C654.358 814.525 568.749 833.98 502.633 803.563C436.316 773.423 414.656 704.618 454.07 650.218Z" fill="#1F2E7E" fill-opacity="0.2"/>
</g>
</g>
<defs>
<filter id="filter0_ii_552_2" x="-40.8479" y="45.2885" width="779.84" height="936.055" filterUnits="userSpaceOnUse" color-interpolation-filters="sRGB">
<feFlood flood-opacity="0" result="BackgroundImageFix"/>
<feBlend mode="normal" in="SourceGraphic" in2="BackgroundImageFix" result="shape"/>
<feColorMatrix in="SourceAlpha" type="matrix" values="0 0 0 0 0 0 0 0 0 0 0 0 0 0 0 0 0 0 127 0" result="hardAlpha"/>
<feOffset dy="76.8"/>
<feGaussianBlur stdDeviation="62.3954"/>
<feComposite in2="hardAlpha" operator="arithmetic" k2="-1" k3="1"/>
<feColorMatrix type="matrix" values="0 0 0 0 1 0 0 0 0 1 0 0 0 0 1 0 0 0 0.8 0"/>
<feBlend mode="lighten" in2="shape" result="effect1_innerShadow_552_2"/>
<feColorMatrix in="SourceAlpha" type="matrix" values="0 0 0 0 0 0 0 0 0 0 0 0 0 0 0 0 0 0 127 0" result="hardAlpha"/>
<feOffset dx="42.1591" dy="24.5928"/>
<feGaussianBlur stdDeviation="24.5928"/>
<feComposite in2="hardAlpha" operator="arithmetic" k2="-1" k3="1"/>
<feColorMatrix type="matrix" values="0 0 0 0 0.168627 0 0 0 0 0.180392 0 0 0 0 0.239216 0 0 0 0.9 0"/>
<feBlend mode="multiply" in2="effect1_innerShadow_552_2" result="effect2_innerShadow_552_2"/>
</filter>
<filter id="filter1_ii_552_2" x="578.296" y="330.466" width="779.84" height="936.056" filterUnits="userSpaceOnUse" color-interpolation-filters="sRGB">
<feFlood flood-opacity="0" result="BackgroundImageFix"/>
<feBlend mode="normal" in="SourceGraphic" in2="BackgroundImageFix" result="shape"/>
<feColorMatrix in="SourceAlpha" type="matrix" values="0 0 0 0 0 0 0 0 0 0 0 0 0 0 0 0 0 0 127 0" result="hardAlpha"/>
<feOffset dy="76.8"/>
<feGaussianBlur stdDeviation="62.3954"/>
<feComposite in2="hardAlpha" operator="arithmetic" k2="-1" k3="1"/>
<feColorMatrix type="matrix" values="0 0 0 0 1 0 0 0 0 1 0 0 0 0 1 0 0 0 0.8 0"/>
<feBlend mode="lighten" in2="shape" result="effect1_innerShadow_552_2"/>
<feColorMatrix in="SourceAlpha" type="matrix" values="0 0 0 0 0 0 0 0 0 0 0 0 0 0 0 0 0 0 127 0" result="hardAlpha"/>
<feOffset dx="42.1591" dy="24.5928"/>
<feGaussianBlur stdDeviation="24.5928"/>
<feComposite in2="hardAlpha" operator="arithmetic" k2="-1" k3="1"/>
<feColorMatrix type="matrix" values="0 0 0 0 0.168627 0 0 0 0 0.180392 0 0 0 0 0.239216 0 0 0 0.9 0"/>
<feBlend mode="multiply" in2="effect1_innerShadow_552_2" result="effect2_innerShadow_552_2"/>
</filter>
<filter id="filter2_ii_552_2" x="434.402" y="-41.1331" width="780.034" height="935.865" filterUnits="userSpaceOnUse" color-interpolation-filters="sRGB">
<feFlood flood-opacity="0" result="BackgroundImageFix"/>
<feBlend mode="normal" in="SourceGraphic" in2="BackgroundImageFix" result="shape"/>
<feColorMatrix in="SourceAlpha" type="matrix" values="0 0 0 0 0 0 0 0 0 0 0 0 0 0 0 0 0 0 127 0" result="hardAlpha"/>
<feOffset dy="76.8"/>
<feGaussianBlur stdDeviation="62.3954"/>
<feComposite in2="hardAlpha" operator="arithmetic" k2="-1" k3="1"/>
<feColorMatrix type="matrix" values="0 0 0 0 1 0 0 0 0 1 0 0 0 0 1 0 0 0 0.8 0"/>
<feBlend mode="lighten" in2="shape" result="effect1_innerShadow_552_2"/>
<feColorMatrix in="SourceAlpha" type="matrix" values="0 0 0 0 0 0 0 0 0 0 0 0 0 0 0 0 0 0 127 0" result="hardAlpha"/>
<feOffset dx="42.1591" dy="24.5928"/>
<feGaussianBlur stdDeviation="24.5928"/>
<feComposite in2="hardAlpha" operator="arithmetic" k2="-1" k3="1"/>
<feColorMatrix type="matrix" values="0 0 0 0 0.168627 0 0 0 0 0.180392 0 0 0 0 0.239216 0 0 0 0.9 0"/>
<feBlend mode="multiply" in2="effect1_innerShadow_552_2" result="effect2_innerShadow_552_2"/>
</filter>
<linearGradient id="paint0_linear_552_2" x1="338.662" y1="599.637" x2="345.853" y2="89.6285" gradientUnits="userSpaceOnUse">
<stop offset="0.132716" stop-opacity="0"/>
<stop offset="1"/>
</linearGradient>
<linearGradient id="paint1_linear_552_2" x1="-3.321" y1="520.38" x2="290.543" y2="663.392" gradientUnits="userSpaceOnUse">
<stop stop-color="#949494"/>
<stop offset="0.635171" stop-color="#181818"/>
<stop offset="1" stop-color="#1D1D1D"/>
</linearGradient>
<linearGradient id="paint2_linear_552_2" x1="957.806" y1="884.815" x2="964.996" y2="374.807" gradientUnits="userSpaceOnUse">
<stop offset="0.132716" stop-opacity="0"/>
<stop offset="1"/>
</linearGradient>
<linearGradient id="paint3_linear_552_2" x1="615.823" y1="805.558" x2="909.686" y2="948.57" gradientUnits="userSpaceOnUse">
<stop stop-color="#949494"/>
<stop offset="0.635171" stop-color="#181818"/>
<stop offset="1" stop-color="#1D1D1D"/>
</linearGradient>
<linearGradient id="paint4_linear_552_2" x1="944.216" y1="333.45" x2="468.291" y2="692.513" gradientUnits="userSpaceOnUse">
<stop offset="0.132716" stop-opacity="0"/>
<stop offset="1"/>
</linearGradient>
<linearGradient id="paint5_linear_552_2" x1="687.086" y1="137.078" x2="902.531" y2="354.492" gradientUnits="userSpaceOnUse">
<stop stop-color="#949494"/>
<stop offset="0.635171" stop-color="#181818"/>
<stop offset="1" stop-color="#1D1D1D"/>
</linearGradient>
</defs>
</svg>
