<svg width="148" height="196" viewBox="0 0 148 196" fill="none" xmlns="http://www.w3.org/2000/svg">
<path d="M182.101 145.332L106.021 -37.057C103.961 -41.9956 98.2859 -44.3295 93.347 -42.2694L6.94476 -6.22855C2.00469 -4.16791 -0.329632 1.50701 1.73039 6.44558L77.81 188.834M182.101 145.332C184.161 150.272 181.826 155.945 176.887 158.005L90.4851 194.046C85.545 196.107 79.8705 193.774 77.81 188.834M182.101 145.332L177.734 134.863L73.443 178.365L77.81 188.834M140.353 63.6261L49.1218 101.681L58.709 124.665L149.94 86.6098M140.353 63.6261L149.94 86.6098M140.353 63.6261L117.368 73.2139M140.353 63.6261L126.955 96.1976M149.94 86.6098L126.955 96.1976M149.94 86.6098L117.368 73.2139M117.368 73.2139L126.955 96.1976M89.2945 176.407L100.781 171.615M89.2945 176.407L94.0856 187.892L105.572 183.101L100.781 171.615M89.2945 176.407L105.572 183.1M100.781 171.615L94.0851 187.891M110.764 167.451L122.251 162.66L127.042 174.145L115.555 178.937L110.764 167.451ZM110.764 167.451L127.04 174.145M132.234 158.495L143.72 153.704L148.511 165.19L137.025 169.981L132.234 158.495ZM132.234 158.495L148.51 165.189M153.702 149.54L165.189 144.749M153.702 149.54L158.493 161.026L169.98 156.235L165.189 144.749M153.702 149.54L169.979 156.234M165.189 144.749L158.493 161.025M115.555 178.936L122.25 162.66M137.024 169.98L143.719 153.704M89.6996 -28.8784L99.9793 -33.1663L104.267 -22.8873L93.9873 -18.5993L89.6996 -28.8784ZM16.1824 22.7142L107.414 -15.3409L127.634 33.1347L36.403 71.1898L16.1824 22.7142ZM38.2749 75.6775L129.506 37.6224L136.806 55.1233L45.5751 93.1784L38.2749 75.6775ZM62.2553 133.167L153.486 95.1115L171.204 137.586L79.9728 175.641L62.2553 133.167ZM8.6932 4.91171L50.7209 -12.6192L52.8647 -7.47973L10.837 10.0512L8.6932 4.91171ZM11.9087 12.6204L42.1209 0.0180495L43.1926 2.58721L12.9804 15.1896L11.9087 12.6204ZM146.635 115.826L154.468 112.559L157.734 120.391L149.902 123.658L146.635 115.826ZM150.887 126.019L158.719 122.752L161.986 130.584L154.154 133.851L150.887 126.019ZM155.139 136.212L162.971 132.945L165.855 139.86L158.023 143.127L155.139 136.212ZM73.3402 146.4L141.841 117.826L145.108 125.658L76.6071 154.232L73.3402 146.4ZM77.592 156.593L146.093 128.019L149.36 135.851L80.8589 164.425L77.592 156.593ZM81.8437 166.786L150.344 138.212L153.229 145.126L84.728 173.7L81.8437 166.786Z" stroke="url(#paint0_linear_3_295)" stroke-width="0.567985" stroke-miterlimit="10"/>
<defs>
<linearGradient id="paint0_linear_3_295" x1="-244.649" y1="-74.6342" x2="34.6256" y2="291.164" gradientUnits="userSpaceOnUse">
<stop stop-color="white"/>
<stop offset="1" stop-color="#3C3C3C"/>
</linearGradient>
</defs>
</svg>
