<svg width="218" height="49" viewBox="0 0 218 49" fill="none" xmlns="http://www.w3.org/2000/svg">
<path d="M10.982 39.456C8.75267 39.456 6.81467 39.0887 5.168 38.354C3.52133 37.6193 2.19133 36.6187 1.178 35.352L4.484 31.704C5.44667 32.768 6.498 33.5533 7.638 34.06C8.80333 34.5667 9.98133 34.82 11.172 34.82C12.54 34.82 13.5787 34.516 14.288 33.908C14.9973 33.3 15.352 32.426 15.352 31.286C15.352 30.3487 15.0733 29.6393 14.516 29.158C13.984 28.6767 13.072 28.3347 11.78 28.132L9.006 27.676C6.62467 27.2707 4.902 26.3967 3.838 25.054C2.774 23.686 2.242 22.0267 2.242 20.076C2.242 17.5173 3.078 15.5413 4.75 14.148C6.422 12.7293 8.76533 12.02 11.78 12.02C13.832 12.02 15.618 12.3367 17.138 12.97C18.658 13.6033 19.8867 14.4647 20.824 15.554L17.594 19.164C16.8847 18.3787 16.0487 17.7707 15.086 17.34C14.1233 16.884 13.034 16.656 11.818 16.656C9.25933 16.656 7.98 17.7073 7.98 19.81C7.98 20.722 8.25867 21.406 8.816 21.862C9.39867 22.318 10.336 22.66 11.628 22.888L14.402 23.382C16.5553 23.762 18.2147 24.5727 19.38 25.814C20.5453 27.0553 21.128 28.7273 21.128 30.83C21.128 32.0713 20.9127 33.224 20.482 34.288C20.0513 35.3267 19.4053 36.2387 18.544 37.024C17.6827 37.784 16.6187 38.3793 15.352 38.81C14.1107 39.2407 12.654 39.456 10.982 39.456ZM25.2552 10.88H30.8792V22.964H31.1072C31.3352 22.4067 31.6138 21.8873 31.9432 21.406C32.2725 20.9247 32.6652 20.5067 33.1212 20.152C33.6025 19.772 34.1472 19.4807 34.7552 19.278C35.3885 19.05 36.0978 18.936 36.8832 18.936C37.8205 18.936 38.6818 19.1007 39.4672 19.43C40.2525 19.734 40.9238 20.2027 41.4812 20.836C42.0385 21.4693 42.4692 22.242 42.7732 23.154C43.1025 24.066 43.2672 25.1173 43.2672 26.308V39H37.6432V27.068C37.6432 24.5347 36.5412 23.268 34.3372 23.268C33.9065 23.268 33.4758 23.3313 33.0452 23.458C32.6398 23.5593 32.2725 23.7367 31.9432 23.99C31.6138 24.218 31.3478 24.5093 31.1452 24.864C30.9678 25.2187 30.8792 25.6367 30.8792 26.118V39H25.2552V10.88ZM57.5023 39.456C54.209 39.456 51.7136 38.544 50.0163 36.72C48.319 34.896 47.4703 32.4133 47.4703 29.272C47.4703 27.676 47.6856 26.2447 48.1163 24.978C48.5723 23.686 49.2056 22.5967 50.0163 21.71C50.8523 20.798 51.853 20.114 53.0183 19.658C54.209 19.1767 55.539 18.936 57.0083 18.936C58.4776 18.936 59.795 19.1767 60.9603 19.658C62.1256 20.114 63.1136 20.7727 63.9243 21.634C64.735 22.4953 65.3556 23.5467 65.7863 24.788C66.2423 26.004 66.4703 27.372 66.4703 28.892V30.564H53.0563V30.906C53.0563 32.1727 53.449 33.1987 54.2343 33.984C55.0196 34.744 56.1723 35.124 57.6923 35.124C58.8576 35.124 59.8583 34.9087 60.6943 34.478C61.5303 34.022 62.2523 33.4267 62.8603 32.692L65.9003 35.998C65.1403 36.9353 64.0763 37.746 62.7083 38.43C61.3403 39.114 59.605 39.456 57.5023 39.456ZM57.0463 22.964C55.8303 22.964 54.855 23.344 54.1203 24.104C53.411 24.8387 53.0563 25.8393 53.0563 27.106V27.41H60.9603V27.106C60.9603 25.814 60.6056 24.8007 59.8963 24.066C59.2123 23.3313 58.2623 22.964 57.0463 22.964ZM70.9395 34.63H76.9435V15.25H70.9395V10.88H82.5675V34.63H88.5715V39H70.9395V34.63ZM93.7246 34.63H99.7286V15.25H93.7246V10.88H105.353V34.63H111.357V39H93.7246V34.63ZM125.934 39.456C122.387 39.456 119.752 38.2653 118.03 35.884C116.332 33.4773 115.484 30.0953 115.484 25.738C115.484 21.3807 116.332 18.0113 118.03 15.63C119.752 13.2233 122.387 12.02 125.934 12.02C127.302 12.02 128.505 12.21 129.544 12.59C130.608 12.9447 131.52 13.4513 132.28 14.11C133.04 14.7687 133.66 15.5667 134.142 16.504C134.648 17.4413 135.041 18.4927 135.32 19.658L130 20.95C129.848 20.3167 129.67 19.734 129.468 19.202C129.265 18.67 128.999 18.214 128.67 17.834C128.366 17.454 127.973 17.1627 127.492 16.96C127.036 16.732 126.478 16.618 125.82 16.618C124.274 16.618 123.172 17.226 122.514 18.442C121.88 19.6327 121.564 21.292 121.564 23.42V28.056C121.564 30.184 121.88 31.856 122.514 33.072C123.172 34.2627 124.274 34.858 125.82 34.858C127.137 34.858 128.087 34.4527 128.67 33.642C129.278 32.8313 129.721 31.7927 130 30.526L135.32 31.818C135.041 32.9833 134.648 34.0347 134.142 34.972C133.66 35.9093 133.04 36.72 132.28 37.404C131.52 38.0627 130.608 38.5693 129.544 38.924C128.505 39.2787 127.302 39.456 125.934 39.456ZM148.111 39.456C146.591 39.456 145.223 39.228 144.007 38.772C142.791 38.2907 141.752 37.6067 140.891 36.72C140.055 35.8333 139.409 34.7567 138.953 33.49C138.497 32.2233 138.269 30.792 138.269 29.196C138.269 27.6 138.497 26.1687 138.953 24.902C139.409 23.6353 140.055 22.5587 140.891 21.672C141.752 20.7853 142.791 20.114 144.007 19.658C145.223 19.1767 146.591 18.936 148.111 18.936C149.631 18.936 150.999 19.1767 152.215 19.658C153.431 20.114 154.457 20.7853 155.293 21.672C156.154 22.5587 156.813 23.6353 157.269 24.902C157.725 26.1687 157.953 27.6 157.953 29.196C157.953 30.792 157.725 32.2233 157.269 33.49C156.813 34.7567 156.154 35.8333 155.293 36.72C154.457 37.6067 153.431 38.2907 152.215 38.772C150.999 39.228 149.631 39.456 148.111 39.456ZM148.111 35.276C149.378 35.276 150.366 34.8833 151.075 34.098C151.784 33.3127 152.139 32.198 152.139 30.754V27.638C152.139 26.194 151.784 25.0793 151.075 24.294C150.366 23.5087 149.378 23.116 148.111 23.116C146.844 23.116 145.856 23.5087 145.147 24.294C144.438 25.0793 144.083 26.194 144.083 27.638V30.754C144.083 32.198 144.438 33.3127 145.147 34.098C145.856 34.8833 146.844 35.276 148.111 35.276ZM174.43 35.428H174.164C173.657 36.6187 172.948 37.594 172.036 38.354C171.149 39.0887 169.921 39.456 168.35 39.456C167.261 39.456 166.26 39.2533 165.348 38.848C164.461 38.4427 163.689 37.822 163.03 36.986C162.397 36.15 161.89 35.086 161.51 33.794C161.155 32.502 160.978 30.9693 160.978 29.196C160.978 27.4227 161.155 25.89 161.51 24.598C161.89 23.306 162.397 22.242 163.03 21.406C163.689 20.57 164.461 19.9493 165.348 19.544C166.26 19.1387 167.261 18.936 168.35 18.936C169.135 18.936 169.832 19.0373 170.44 19.24C171.048 19.4427 171.58 19.7213 172.036 20.076C172.517 20.4307 172.923 20.8613 173.252 21.368C173.607 21.8493 173.911 22.3813 174.164 22.964H174.43V10.88H180.054V39H174.43V35.428ZM170.782 35.086C171.77 35.086 172.619 34.8453 173.328 34.364C174.063 33.8827 174.43 33.1227 174.43 32.084V26.308C174.43 25.2693 174.063 24.5093 173.328 24.028C172.619 23.5467 171.77 23.306 170.782 23.306C169.515 23.306 168.54 23.6987 167.856 24.484C167.172 25.244 166.83 26.308 166.83 27.676V30.716C166.83 32.084 167.172 33.1607 167.856 33.946C168.54 34.706 169.515 35.086 170.782 35.086ZM194.213 39.456C190.92 39.456 188.425 38.544 186.727 36.72C185.03 34.896 184.181 32.4133 184.181 29.272C184.181 27.676 184.397 26.2447 184.827 24.978C185.283 23.686 185.917 22.5967 186.727 21.71C187.563 20.798 188.564 20.114 189.729 19.658C190.92 19.1767 192.25 18.936 193.719 18.936C195.189 18.936 196.506 19.1767 197.671 19.658C198.837 20.114 199.825 20.7727 200.635 21.634C201.446 22.4953 202.067 23.5467 202.497 24.788C202.953 26.004 203.181 27.372 203.181 28.892V30.564H189.767V30.906C189.767 32.1727 190.16 33.1987 190.945 33.984C191.731 34.744 192.883 35.124 194.403 35.124C195.569 35.124 196.569 34.9087 197.405 34.478C198.241 34.022 198.963 33.4267 199.571 32.692L202.611 35.998C201.851 36.9353 200.787 37.746 199.419 38.43C198.051 39.114 196.316 39.456 194.213 39.456ZM193.757 22.964C192.541 22.964 191.566 23.344 190.831 24.104C190.122 24.8387 189.767 25.8393 189.767 27.106V27.41H197.671V27.106C197.671 25.814 197.317 24.8007 196.607 24.066C195.923 23.3313 194.973 22.964 193.757 22.964Z" fill="white"/>
<path d="M214.403 5.77091L200.248 11.5903C199.315 11.9736 199.472 13.3397 200.467 13.5021L206.752 14.5281C207.128 14.5894 207.436 14.8589 207.548 15.223L209.291 20.9339C209.576 21.869 210.896 21.881 211.198 20.9512L215.734 7.00509C215.998 6.19448 215.191 5.4468 214.403 5.77091Z" stroke="white" stroke-width="3"/>
</svg>
